<svg xmlns="http://www.w3.org/2000/svg" xmlns:xlink="http://www.w3.org/1999/xlink" version="1.1" width="128" height="128" viewBox="0 0 100 100">


		<defs>
			<g id="background">
<path fill="url(#background-gradient)" stroke="none" d=" M 84.2 84.25 Q 98.35 70.1 98.35 50.1 98.35 30 84.2 15.85 70.1 1.75 50 1.75 29.9 1.75 15.75 15.85 1.6 30 1.6 50.1 1.6 70.1 15.75 84.25 29.9 98.4 50 98.4 70.1 98.4 84.2 84.25 Z"/>
</g><mask id="mask">
<path fill="#FFFFFF" stroke="none" d=" M 83 83.15 Q 96.75 69.4 96.75 50 96.75 30.7 83 17 69.25 3.25 50 3.25 30.7 3.25 16.95 17 3.2 30.7 3.2 50 3.2 69.4 16.95 83.15 30.7 96.9 50 96.9 69.25 96.9 83 83.15 Z"/>
</mask><g id="bottom-1">
<path fill="#000000" fill-opacity="0.1" stroke="none" d=" M 84.2 84.25 Q 98.35 70.1 98.35 50.1 98.35 32.0181640625 86.9 18.75 83.6048828125 15.971484375 80.05 13.85 87.996875 26.8396484375 86.8 42.4 85.4 60.2 72.75 72.8 60.15 85.45 42.35 86.85 26.840625 88.1314453125 13.9 80.25 15.9806640625 83.7251953125 18.7 86.95 L 15.7 84.25 Q 29.85 98.4 49.95 98.4 70.05 98.4 84.2 84.25 Z"/>
</g><g id="bottom-2">
<path fill="#ffffff" fill-opacity="1" stroke="none" d=" M 86.9 18.75 Q 85.620703125 17.270703125 84.2 15.85 82.45390625 13.9720703125 80.25 12.3 67.3384765625 1.7 49.95 1.7 29.85 1.7 15.7 15.85 1.55 30 1.55 50.1 1.55 69.1466796875 14.4 82.85 L 15.7 84.25 18.7 86.95 Q 15.9806640625 83.7251953125 13.9 80.25 6.7572265625 68.375 7.3 53.8 8 34.95 21.45 21.5 34.8 8.15 53.75 7.45 68.2330078125 6.8337890625 80.05 13.85 83.6048828125 15.971484375 86.9 18.75 Z"/>
</g><g id="bottom-3">
<path fill="#1C395D" fill-opacity="1" stroke="none" d=" M 85.35 85.35 Q 100 70.7 100 50 100 29.3 85.35 14.65 70.7 0 50 0 29.25 0 14.65 14.65 0 29.3 0 50 0 70.7 14.65 85.35 29.25 100 50 100 70.7 100 85.35 85.35 M 96.75 50 Q 96.75 69.4 83 83.15 69.25 96.9 50 96.9 30.7 96.9 16.95 83.15 3.2 69.4 3.2 50 3.2 30.7 16.95 17 30.7 3.25 50 3.25 69.25 3.25 83 17 96.75 30.7 96.75 50 Z"/>
</g>
			
	<linearGradient id="background-gradient" x1="0" y1="0" y2="1" x2="0">
		<stop stop-color="#f9af3b" offset="0%"/>
		<stop stop-color="#883d05" offset="100%"/>
	</linearGradient>

			
			
			<g transform="scale(3.067484806153692) translate(3.299999713897705 0.5000006556510925)" id="picture"><path d="M26 13.9c0-2.6-1.9-4.6-4.3-4.8-.6-2.5-2.4-4.4-4.9-5.4.3-.7.9-1.2 1.3-1.5.8-.5 1.8-.6 2.7-.8.2 0 .4-.2.4-.5 0-.2-.1-.4-.3-.5-2.8-.9-6-.2-8.4 1.9 0-.1 0-.1-.1-.2-.2-.3-.6-.5-.9-.7C10.2.6 8.7.1 7.2.1c-.2 0-.4.1-.5.4-.1.2 0 .4.2.6.9.5 1.6 1.5 1.9 2.6 0 .1 0 .1.1.2-2.4 1-4 2.8-4.6 5.2-2.4.1-4.3 2.2-4.3 4.8 0 2 1.1 3.8 2.7 4.7-.4 1-.7 2.2-.7 3.5 0 5.8 4.6 10 11 10s11-4.2 11-10c0-1.3-.2-2.5-.7-3.5 1.6-.9 2.7-2.7 2.7-4.7zM17.6 1.4c-.8.5-1.4 1.2-1.8 2.1-.8-.2-1.7-.3-2.6-.3 1.4-1.2 3.1-1.9 4.9-2-.1 0-.3.1-.5.2zM9.8 3.5c-.2-.8-.6-1.6-1.1-2.2.8.2 1.6.5 2.3.9.2.1.5.3.6.5.1.1.1.3 0 .4-.6.2-1.2.3-1.8.4zM13 5.1c3.5 0 7 1.9 7 6.1 0 1.1-.3 2.2-.8 3.2-1.7-.8-3.8-1.3-6.2-1.3s-4.5.4-6.2 1.3c-.5-1-.8-2.1-.8-3.2C6 7 9.5 5.1 13 5.1zM1 13.9c0-1.9 1.3-3.5 3.1-3.8 0 .3-.1.7-.1 1 0 1.5.4 3 1.1 4.3-.8.6-1.5 1.4-2 2.3C1.8 17 1 15.5 1 13.9zm12 16.2c-5.3 0-9-3.3-9-8 0-6.5 6.9-7 9-7s9 .5 9 7c0 4.7-3.7 8-9 8zm9.9-12.4c-.5-.9-1.2-1.6-2-2.3.7-1.3 1.1-2.8 1.1-4.3 0-.3 0-.7-.1-1 1.7.2 3.1 1.8 3.1 3.8 0 1.6-.8 3.1-2.1 3.8z M18.1 24.3c-1.4 1.8-3.2 2.8-5.1 2.8-1.9 0-3.7-1-5.1-2.8-.2-.2-.5-.3-.7-.1-.2.2-.3.5-.1.7 1.6 2.1 3.7 3.2 5.9 3.2s4.3-1.1 5.9-3.2c.2-.2.1-.5-.1-.7-.2-.2-.5-.1-.7.1zM17 11.1a1 1 0 1 1-2 0 1 1 0 1 1 2 0zm-6 0a1 1 0 1 1-2 0 1 1 0 1 1 2 0z"/></g>
			
	<linearGradient id="picture-gradient" x1="0" y1="0" y2="1" x2="0">
		<stop stop-color="#ffffff" offset="0%"/>
		<stop stop-color="#e5eff9" offset="100%"/>
	</linearGradient>

		</defs>

		

			<use xlink:href="#background" fill="url(#background-gradient)"/>

		

			<g mask="url(#mask)">
				<g transform="             translate(                                 50 50 )                             translate(0 0)  scale(0.7000000000000002)                               translate(                                 -50 -50 )">
						<use xlink:href="#picture" fill="url(#picture-gradient)"/>
				</g>
			</g>

		<use xlink:href="#bottom-1"/><use xlink:href="#bottom-2"/><use xlink:href="#bottom-3"/>



	</svg>